[Header]
FileType HTR
DataType HTRS
FileVersion 1
NumSegments 64
NumFrames 3
DataFrameRate 24
EulerRotationOrder ZYX
CalibrationUnits mm
RotationUnits Degrees
GlobalAxisofGravity Y
BoneLengthAxis Y
ScaleFactor 1.0
[SegmentNames&Hierarchy]
Hips	GLOBAL
Spine	Hips
Spine1	Spine
Spine2	Spine1
Neck	Spine2
Head	Neck
LeftEye	Head
RightEye	Head
LeftShoulder	Spine2
LeftArm	LeftShoulder
LeftForeArm	LeftArm
LeftHand	LeftForeArm
LeftHandThumb1	LeftHand
LeftHandThumb2	LeftHandThumb1
LeftHandThumb3	LeftHandThumb2
LeftHandThumb4	LeftHandThumb3
LeftHandIndex1	LeftHand
LeftHandIndex2	LeftHandIndex1
LeftHandIndex3	LeftHandIndex2
LeftHandIndex4	LeftHandIndex3
LeftHandMiddle1	LeftHand
LeftHandMiddle2	LeftHandMiddle1
LeftHandMiddle3	LeftHandMiddle2
LeftHandMiddle4	LeftHandMiddle3
LeftHandRing1	LeftHand
LeftHandRing2	LeftHandRing1
LeftHandRing3	LeftHandRing2
LeftHandRing4	LeftHandRing3
LeftHandPinky1	LeftHand
LeftHandPinky2	LeftHandPinky1
LeftHandPinky3	LeftHandPinky2
LeftHandPinky4	LeftHandPinky3
RightShoulder	Spine2
RightArm	RightShoulder
RightForeArm	RightArm
RightHand	RightForeArm
RightHandPinky1	RightHand
RightHandPinky2	RightHandPinky1
RightHandPinky3	RightHandPinky2
RightHandPinky4	RightHandPinky3
RightHandRing1	RightHand
RightHandRing2	RightHandRing1
RightHandRing3	RightHandRing2
RightHandRing4	RightHandRing3
RightHandMiddle1	RightHand
RightHandMiddle2	RightHandMiddle1
RightHandMiddle3	RightHandMiddle2
RightHandMiddle4	RightHandMiddle3
RightHandIndex1	RightHand
RightHandIndex2	RightHandIndex1
RightHandIndex3	RightHandIndex2
RightHandIndex4	RightHandIndex3
RightHandThumb1	RightHand
RightHandThumb2	RightHandThumb1
RightHandThumb3	RightHandThumb2
RightHandThumb4	RightHandThumb3
LeftUpLeg	Hips
LeftLeg	LeftUpLeg
LeftFoot	LeftLeg
LeftToeBase	LeftFoot
RightUpLeg	Hips
RightLeg	RightUpLeg
RightFoot	RightLeg
RightToeBase	RightFoot
[BasePosition]
Hips	0	0	0	0	0	0	1
Spine	0	0	0	0	0	0	1
Spine1	0	0	0	0	0	0	1
Spine2	0	0	0	0	0	0	1
Neck	0	0	0	0	0	0	1
Head	0	0	0	0	0	0	1
LeftEye	0	0	0	0	0	0	1
RightEye	0	0	0	0	0	0	1
LeftShoulder	0	0	0	0	0	0	1
LeftArm	0	0	0	0	0	0	1
LeftForeArm	0	0	0	0	0	0	1
LeftHand	0	0	0	0	0	0	1
LeftHandThumb1	0	0	0	0	0	0	1
LeftHandThumb2	0	0	0	0	0	0	1
LeftHandThumb3	0	0	0	0	0	0	1
LeftHandThumb4	0	0	0	0	0	0	1
LeftHandIndex1	0	0	0	0	0	0	1
LeftHandIndex2	0	0	0	0	0	0	1
LeftHandIndex3	0	0	0	0	0	0	1
LeftHandIndex4	0	0	0	0	0	0	1
LeftHandMiddle1	0	0	0	0	0	0	1
LeftHandMiddle2	0	0	0	0	0	0	1
LeftHandMiddle3	0	0	0	0	0	0	1
LeftHandMiddle4	0	0	0	0	0	0	1
LeftHandRing1	0	0	0	0	0	0	1
LeftHandRing2	0	0	0	0	0	0	1
LeftHandRing3	0	0	0	0	0	0	1
LeftHandRing4	0	0	0	0	0	0	1
LeftHandPinky1	0	0	0	0	0	0	1
LeftHandPinky2	0	0	0	0	0	0	1
LeftHandPinky3	0	0	0	0	0	0	1
LeftHandPinky4	0	0	0	0	0	0	1
RightShoulder	0	0	0	0	0	0	1
RightArm	0	0	0	0	0	0	1
RightForeArm	0	0	0	0	0	0	1
RightHand	0	0	0	0	0	0	1
RightHandPinky1	0	0	0	0	0	0	1
RightHandPinky2	0	0	0	0	0	0	1
RightHandPinky3	0	0	0	0	0	0	1
RightHandPinky4	0	0	0	0	0	0	1
RightHandRing1	0	0	0	0	0	0	1
RightHandRing2	0	0	0	0	0	0	1
RightHandRing3	0	0	0	0	0	0	1
RightHandRing4	0	0	0	0	0	0	1
RightHandMiddle1	0	0	0	0	0	0	1
RightHandMiddle2	0	0	0	0	0	0	1
RightHandMiddle3	0	0	0	0	0	0	1
RightHandMiddle4	0	0	0	0	0	0	1
RightHandIndex1	0	0	0	0	0	0	1
RightHandIndex2	0	0	0	0	0	0	1
RightHandIndex3	0	0	0	0	0	0	1
RightHandIndex4	0	0	0	0	0	0	1
RightHandThumb1	0	0	0	0	0	0	1
RightHandThumb2	0	0	0	0	0	0	1
RightHandThumb3	0	0	0	0	0	0	1
RightHandThumb4	0	0	0	0	0	0	1
LeftUpLeg	0	0	0	0	0	0	1
LeftLeg	0	0	0	0	0	0	1
LeftFoot	0	0	0	0	0	0	1
LeftToeBase	0	0	0	0	0	0	1
RightUpLeg	0	0	0	0	0	0	1
RightLeg	0	0	0	0	0	0	1
RightFoot	0	0	0	0	0	0	1
RightToeBase	0	0	0	0	0	0	1
[Hips]
31	-12.61788845	991.5202637	15.13533592	10.59008884	-53.39881134	-11.19826126	1.0
32	-12.08638096	990.5935669	15.19690704	10.60132027	-53.42264557	-11.23063564	1.0
33	-11.55487251	989.6668091	15.25848007	10.61255074	-53.44647598	-11.26301003	1.0
[Spine]
31	9.234152094e-05	101.8158798	1.31520927	2.728435516	6.731451035	3.146889687	1.0
32	9.234152094e-05	101.8158798	1.31520927	2.797880888	6.729079247	3.197367668	1.0
33	9.234152094e-05	101.8158798	1.31520927	2.867326498	6.726707458	3.247845173	1.0
[Spine1]
31	2.519402869e-06	100.8345108	-10.00804329	2.59219408	7.888066292	-0.03326887637	1.0
32	2.519402869e-06	100.8345108	-10.00804329	2.631500483	7.888271332	-0.03631940857	1.0
33	2.519402869e-06	100.8345108	-10.00804329	2.670806885	7.888475418	-0.03936994448	1.0
[Spine2]
31	3.4574864e-06	91.00010681	-13.73417091	2.66006732	7.87858963	-0.1984205991	1.0
32	3.4574864e-06	91.00010681	-13.73417091	2.697682858	7.881401062	-0.2055426389	1.0
33	3.4574864e-06	91.00010681	-13.73417091	2.735298395	7.884212971	-0.2126646638	1.0
[Neck]
31	6.334285445e-06	166.7166901	-25.16167831	11.74839211	7.605252266	-2.932082891	1.0
32	6.334285445e-06	166.7166901	-25.16167831	11.70362377	7.5995965	-2.931583881	1.0
33	6.334285445e-06	166.7166901	-25.16167831	11.65885544	7.593941212	-2.931084633	1.0
[Head]
31	-4.242318937e-06	96.17874908	16.85007477	2.184914351	19.96710396	8.385993004	1.0
32	-4.242318937e-06	96.17874908	16.85007477	2.198277712	19.94504929	8.436974525	1.0
33	-4.242318937e-06	96.17874908	16.85007477	2.211641312	19.92299461	8.487958908	1.0
[LeftEye]
31	30.67560577	64.09507751	92.83554077	0	0	0	1.0
32	30.67560577	64.09507751	92.83554077	0	0	0	1.0
33	30.67560577	64.09507751	92.83554077	0	0	0	1.0
[RightEye]
31	-30.67550468	64.09500122	92.83547211	0	0	0	1.0
32	-30.67550468	64.09500122	92.83547211	0	0	0	1.0
33	-30.67550468	64.09500122	92.83547211	0	0	0	1.0
[LeftShoulder]
31	45.70446396	109.4598465	-26.27988052	2.52248621	5.388501167	-11.37447929	1.0
32	45.70446396	109.4598465	-26.27988052	2.524230003	5.377092838	-11.36593628	1.0
33	45.70446396	109.4598465	-26.27988052	2.525973797	5.365684986	-11.35739326	1.0
[LeftArm]
31	105.9236984	-5.245829105	-22.32120132	-28.34692574	-55.7779274	-17.95770454	1.0
32	105.9236984	-5.245829105	-22.32120132	-28.51119995	-55.84015656	-17.82448769	1.0
33	105.9236984	-5.245829105	-22.32120132	-28.67547035	-55.90237808	-17.69126892	1.0
[LeftForeArm]
31	278.4151917	-0.0008942864952	0.0003745891154	-5.84892332e-05	-81.86092377	-0.000159338786	1.0
32	278.4151917	-0.0008942864952	0.0003745891154	-4.060594165e-06	-81.87164307	-0.0001473599114	1.0
33	278.4151917	-0.0008942864952	0.0003745891154	5.036804214e-05	-81.88235474	-0.0001353810221	1.0
[LeftHand]
31	283.2883911	-0.0001744071778	0.0003780452244	-48.26593399	45.07210541	3.34644866	1.0
32	283.2883911	-0.0001744071778	0.0003780452244	-48.27132034	45.29751205	3.048699617	1.0
33	283.2883911	-0.0001744071778	0.0003780452244	-48.2767067	45.52291489	2.750950336	1.0
[LeftHandThumb1]
31	24.66140366	-15.7504921	26.82413483	-12.29798794	13.35949898	9.401165009	1.0
32	24.66140366	-15.7504921	26.82413483	-12.29798794	13.35949898	9.401165009	1.0
33	24.66140366	-15.7504921	26.82413483	-12.29798794	13.35949898	9.401165009	1.0
[LeftHandThumb2]
31	32.29803848	-18.6469059	18.64681244	-0.2483453304	-4.311873436	13.28869915	1.0
32	32.29803848	-18.6469059	18.64681244	-0.2483453304	-4.311873436	13.28869915	1.0
33	32.29803848	-18.6469059	18.64681244	-0.2483453304	-4.311873436	13.28869915	1.0
[LeftHandThumb3]
31	26.52565002	-15.31492996	15.31471634	-9.976514816	-23.52258492	0.1755283028	1.0
32	26.52565002	-15.31492996	15.31471634	-9.976514816	-23.52258492	0.1755283028	1.0
33	26.52565002	-15.31492996	15.31471634	-9.976514816	-23.52258492	0.1755283028	1.0
[LeftHandThumb4]
31	19.54566956	-11.2850008	11.28492165	0	0	0	1.0
32	19.54566956	-11.2850008	11.28492165	0	0	0	1.0
33	19.54566956	-11.2850008	11.28492165	0	0	0	1.0
[LeftHandIndex1]
31	91.09301758	-5.170834064	22.6007309	-2.034207106	1.761208534	-31.54689026	1.0
32	91.09301758	-5.170834064	22.6007309	-2.034207106	1.761208534	-31.54689026	1.0
33	91.09301758	-5.170834064	22.6007309	-2.034207106	1.761208534	-31.54689026	1.0
[LeftHandIndex2]
31	36.76409531	-6.939138257e-05	0.0002924251603	-3.082290649	5.140966415	-61.86808395	1.0
32	36.76409531	-6.939138257e-05	0.0002924251603	-3.082290649	5.140966415	-61.86808395	1.0
33	36.76409531	-6.939138257e-05	0.0002924251603	-3.082290649	5.140966415	-61.86808395	1.0
[LeftHandIndex3]
31	28.83062553	0.000385119667	-0.0004276481632	-0.5015913248	2.368166685	-23.91410255	1.0
32	28.83062553	0.000385119667	-0.0004276481632	-0.5015913248	2.368166685	-23.91410255	1.0
33	28.83062553	0.000385119667	-0.0004276481632	-0.5015913248	2.368166685	-23.91410255	1.0
[LeftHandIndex4]
31	23.92720032	0.0003702590766	0.0003355443478	0	0	0	1.0
32	23.92720032	0.0003702590766	0.0003355443478	0	0	0	1.0
33	23.92720032	0.0003702590766	0.0003355443478	0	0	0	1.0
[LeftHandMiddle1]
31	95.33401489	-0.000339240476	0.0001393702551	-2.959770441	-0.3316034675	-41.48937225	1.0
32	95.33401489	-0.000339240476	0.0001393702551	-2.959770441	-0.3316034675	-41.48937225	1.0
33	95.33401489	-0.000339240476	0.0001393702551	-2.959770441	-0.3316034675	-41.48937225	1.0
[LeftHandMiddle2]
31	36.98236847	1.961359158e-05	0.0001791696704	-2.939359903	5.06229353	-60.2610817	1.0
32	36.98236847	1.961359158e-05	0.0001791696704	-2.939359903	5.06229353	-60.2610817	1.0
33	36.98236847	1.961359158e-05	0.0001791696704	-2.939359903	5.06229353	-60.2610817	1.0
[LeftHandMiddle3]
31	29.50921631	-0.0003937608562	0.0001644795993	-1.315997601	3.691623449	-39.22911072	1.0
32	29.50921631	-0.0003937608562	0.0001644795993	-1.315997601	3.691623449	-39.22911072	1.0
33	29.50921631	-0.0003937608562	0.0001644795993	-1.315997601	3.691623449	-39.22911072	1.0
[LeftHandMiddle4]
31	28.3390255	-0.0003893481917	-9.504223272e-05	0	0	0	1.0
32	28.3390255	-0.0003893481917	-9.504223272e-05	0	0	0	1.0
33	28.3390255	-0.0003893481917	-9.504223272e-05	0	0	0	1.0
[LeftHandRing1]
31	91.04527283	-0.4393950403	-18.65084648	-3.775710106	-4.751326084	-49.6909523	1.0
32	91.04527283	-0.4393950403	-18.65084648	-3.775710106	-4.751326084	-49.6909523	1.0
33	91.04527283	-0.4393950403	-18.65084648	-3.775710106	-4.751326084	-49.6909523	1.0
[LeftHandRing2]
31	31.54026794	-6.55346812e-05	0.000104257444	-3.032872438	5.114353657	-61.31506729	1.0
32	31.54026794	-6.55346812e-05	0.000104257444	-3.032872438	5.114353657	-61.31506729	1.0
33	31.54026794	-6.55346812e-05	0.000104257444	-3.032872438	5.114353657	-61.31506729	1.0
[LeftHandRing3]
31	29.37672424	-0.0004545861739	-6.864757597e-05	-0.350160718	1.992284179	-19.93597984	1.0
32	29.37672424	-0.0004545861739	-6.864757597e-05	-0.350160718	1.992284179	-19.93597984	1.0
33	29.37672424	-0.0004545861739	-6.864757597e-05	-0.350160718	1.992284179	-19.93597984	1.0
[LeftHandRing4]
31	26.47452545	-0.0004980441299	7.070515267e-07	0	0	0	1.0
32	26.47452545	-0.0004980441299	7.070515267e-07	0	0	0	1.0
33	26.47452545	-0.0004980441299	7.070515267e-07	0	0	0	1.0
[LeftHandPinky1]
31	80.77777863	-4.886682034	-38.06066895	-2.494308233	-10.25931644	-37.81870651	1.0
32	80.77777863	-4.886682034	-38.06066895	-2.494308233	-10.25931644	-37.81870651	1.0
33	80.77777863	-4.886682034	-38.06066895	-2.494308233	-10.25931644	-37.81870651	1.0
[LeftHandPinky2]
31	36.00034332	-2.252215199e-05	-0.0002623879409	-2.836258411	5.002195358	-59.08558273	1.0
32	36.00034332	-2.252215199e-05	-0.0002623879409	-2.836258411	5.002195358	-59.08558273	1.0
33	36.00034332	-2.252215199e-05	-0.0002623879409	-2.836258411	5.002195358	-59.08558273	1.0
[LeftHandPinky3]
31	21.14211655	0.0001953828178	-2.864415183e-05	-0.872974813	3.07111001	-31.72867775	1.0
32	21.14211655	0.0001953828178	-2.864415183e-05	-0.872974813	3.07111001	-31.72867775	1.0
33	21.14211655	0.0001953828178	-2.864415183e-05	-0.872974813	3.07111001	-31.72867775	1.0
[LeftHandPinky4]
31	19.7568264	0.0001240565616	-0.0004430140834	0	0	0	1.0
32	19.7568264	0.0001240565616	-0.0004430140834	0	0	0	1.0
33	19.7568264	0.0001240565616	-0.0004430140834	0	0	0	1.0
[RightShoulder]
31	-45.69969559	109.4617615	-26.28017426	-14.90143108	0.6755937338	-5.060406208	1.0
32	-45.69969559	109.4617615	-26.28017426	-14.87799931	0.7907114625	-4.957597256	1.0
33	-45.69969559	109.4617615	-26.28017426	-14.85456657	0.905829072	-4.85478878	1.0
[RightArm]
31	-105.9284363	-5.247983932	-22.32098579	-60.7587204	118.7825165	-16.4758625	1.0
32	-105.9284363	-5.247983932	-22.32098579	-61.08904266	118.6506042	-16.71866035	1.0
33	-105.9284363	-5.247983932	-22.32098579	-61.41936493	118.518692	-16.9614563	1.0
[RightForeArm]
31	-278.4151917	-0.0003307921579	0.0001167631053	6.24272343e-06	28.6140976	4.499387614e-06	1.0
32	-278.4151917	-0.0003307921579	0.0001167631053	4.098244517e-06	28.8473053	1.441800805e-06	1.0
33	-278.4151917	-0.0003307921579	0.0001167631053	1.953765377e-06	29.08051109	-1.615786118e-06	1.0
[RightHand]
31	-283.2883911	-1.581417109e-06	0.000558160129	-43.52138519	-27.43673325	-16.86367798	1.0
32	-283.2883911	-1.581417109e-06	0.000558160129	-43.48408127	-27.71812057	-16.79364014	1.0
33	-283.2883911	-1.581417109e-06	0.000558160129	-43.44677734	-27.999506	-16.7236042	1.0
[RightHandPinky1]
31	-80.76674652	-4.88459301	-38.06010437	-4.179559231	-3.048670053	59.07947159	1.0
32	-80.76674652	-4.88459301	-38.06010437	-4.179559231	-3.048670053	59.07947159	1.0
33	-80.76674652	-4.88459301	-38.06010437	-4.179559231	-3.048670053	59.07947159	1.0
[RightHandPinky2]
31	-36.00034332	0.0003967665543	0.0005081442068	-3.174546003	-4.396142006	71.67469025	1.0
32	-36.00034332	0.0003967665543	0.0005081442068	-3.174546003	-4.396142006	71.67469025	1.0
33	-36.00034332	0.0003967665543	0.0005081442068	-3.174546003	-4.396142006	71.67469025	1.0
[RightHandPinky3]
31	-21.14211655	0.0001513792522	0.0001479376951	-1.761317968	-3.635984421	51.6805954	1.0
32	-21.14211655	0.0001513792522	0.0001479376951	-1.761317968	-3.635984421	51.6805954	1.0
33	-21.14211655	0.0001513792522	0.0001479376951	-1.761317968	-3.635984421	51.6805954	1.0
[RightHandPinky4]
31	-19.7568264	-0.000185219571	-9.839841368e-06	0	0	0	1.0
32	-19.7568264	-0.000185219571	-9.839841368e-06	0	0	0	1.0
33	-19.7568264	-0.000185219571	-9.839841368e-06	0	0	0	1.0
[RightHandRing1]
31	-91.03588104	-0.4391434789	-18.65072441	-4.049632549	-6.933060169	57.63954544	1.0
32	-91.03588104	-0.4391434789	-18.65072441	-4.049632549	-6.933060169	57.63954544	1.0
33	-91.03588104	-0.4391434789	-18.65072441	-4.049632549	-6.933060169	57.63954544	1.0
[RightHandRing2]
31	-31.54026794	0.0002399729856	0.0004885121016	-5.297682285	-4.582300186	98.2931366	1.0
32	-31.54026794	0.0002399729856	0.0004885121016	-5.297682285	-4.582300186	98.2931366	1.0
33	-31.54026794	0.0002399729856	0.0004885121016	-5.297682285	-4.582300186	98.2931366	1.0
[RightHandRing3]
31	-29.37672424	-0.0004160065437	-0.0003966063377	-1.618076921	-3.518265247	49.38505554	1.0
32	-29.37672424	-0.0004160065437	-0.0003966063377	-1.618076921	-3.518265247	49.38505554	1.0
33	-29.37672424	-0.0004160065437	-0.0003966063377	-1.618076921	-3.518265247	49.38505554	1.0
[RightHandRing4]
31	-26.47452545	0.0002460821415	-2.294923434e-05	0	0	0	1.0
32	-26.47452545	0.0002460821415	-2.294923434e-05	0	0	0	1.0
33	-26.47452545	0.0002460821415	-2.294923434e-05	0	0	0	1.0
[RightHandMiddle1]
31	-95.32502747	-0.0001631230261	0.0001679184206	-3.53036809	-16.46828079	52.07723618	1.0
32	-95.32502747	-0.0001631230261	0.0001679184206	-3.53036809	-16.46828079	52.07723618	1.0
33	-95.32502747	-0.0001631230261	0.0001679184206	-3.53036809	-16.46828079	52.07723618	1.0
[RightHandMiddle2]
31	-36.98236847	0.000150669599	-0.0002254552383	-6.350979805	-4.299677372	111.8329315	1.0
32	-36.98236847	0.000150669599	-0.0002254552383	-6.350979805	-4.299677372	111.8329315	1.0
33	-36.98236847	0.000150669599	-0.0002254552383	-6.350979805	-4.299677372	111.8329315	1.0
[RightHandMiddle3]
31	-29.50921631	-3.113244929e-06	-3.03402544e-06	-0.2459617406	-1.492588997	18.73979759	1.0
32	-29.50921631	-3.113244929e-06	-3.03402544e-06	-0.2459617406	-1.492588997	18.73979759	1.0
33	-29.50921631	-3.113244929e-06	-3.03402544e-06	-0.2459617406	-1.492588997	18.73979759	1.0
[RightHandMiddle4]
31	-28.3390255	8.05324089e-05	0.0005378770875	0	0	0	1.0
32	-28.3390255	8.05324089e-05	0.0005378770875	0	0	0	1.0
33	-28.3390255	8.05324089e-05	0.0005378770875	0	0	0	1.0
[RightHandIndex1]
31	-91.08280945	-5.167889595	22.60116386	-1.387360573	-4.207729816	25.46813583	1.0
32	-91.08280945	-5.167889595	22.60116386	-1.387360573	-4.207729816	25.46813583	1.0
33	-91.08280945	-5.167889595	22.60116386	-1.387360573	-4.207729816	25.46813583	1.0
[RightHandIndex2]
31	-36.76409531	0.0001922715601	0.0003235567128	-1.643622756	-3.539990187	49.80016327	1.0
32	-36.76409531	0.0001922715601	0.0003235567128	-1.643622756	-3.539990187	49.80016327	1.0
33	-36.76409531	0.0001922715601	0.0003235567128	-1.643622756	-3.539990187	49.80016327	1.0
[RightHandIndex3]
31	-28.83062553	-0.0004960121587	0.0004044897505	-1.727792621	-3.609309912	51.15027237	1.0
32	-28.83062553	-0.0004960121587	0.0004044897505	-1.727792621	-3.609309912	51.15027237	1.0
33	-28.83062553	-0.0004960121587	0.0004044897505	-1.727792621	-3.609309912	51.15027237	1.0
[RightHandIndex4]
31	-23.92720032	0.0002681470069	0.0002802013478	0	0	0	1.0
32	-23.92720032	0.0002681470069	0.0002802013478	0	0	0	1.0
33	-23.92720032	0.0002681470069	0.0002802013478	0	0	0	1.0
[RightHandThumb1]
31	-24.64805984	-15.72714233	26.82626534	7.322416306	-6.350176334	10.24958611	1.0
32	-24.64805984	-15.72714233	26.82626534	7.322416306	-6.350176334	10.24958611	1.0
33	-24.64805984	-15.72714233	26.82626534	7.322416306	-6.350176334	10.24958611	1.0
[RightHandThumb2]
31	-32.29771805	-18.6470871	18.64718437	26.54580307	-9.159310341	-24.03568459	1.0
32	-32.29771805	-18.6470871	18.64718437	26.54580307	-9.159310341	-24.03568459	1.0
33	-32.29771805	-18.6470871	18.64718437	26.54580307	-9.159310341	-24.03568459	1.0
[RightHandThumb3]
31	-26.52605057	-15.31449318	15.31445599	31.8479023	-40.59857559	-44.24287415	1.0
32	-26.52605057	-15.31449318	15.31445599	31.8479023	-40.59857559	-44.24287415	1.0
33	-26.52605057	-15.31449318	15.31445599	31.8479023	-40.59857559	-44.24287415	1.0
[RightHandThumb4]
31	-19.54580498	-11.28461742	11.28507042	0	0	0	1.0
32	-19.54580498	-11.28461742	11.28507042	0	0	0	1.0
33	-19.54580498	-11.28461742	11.28507042	0	0	0	1.0
[LeftUpLeg]
31	82.07781982	-67.51714325	-15.99555588	-26.20906639	18.41141891	15.43601799	1.0
32	82.07781982	-67.51714325	-15.99555588	-26.42802811	18.4876461	15.43932629	1.0
33	82.07781982	-67.51714325	-15.99555588	-26.64699173	18.5638752	15.44263554	1.0
[LeftLeg]
31	-4.110157988e-06	-443.7047119	2.846426487	25.38307953	9.01417923	4.778503895	1.0
32	-4.110157988e-06	-443.7047119	2.846426487	25.796875	8.993284225	4.821613312	1.0
33	-4.110157988e-06	-443.7047119	2.846426487	26.21066856	8.972388268	4.864722252	1.0
[LeftFoot]
31	4.716393505e-06	-444.278717	-29.82190704	4.036959648	6.688451767	-8.257745743	1.0
32	4.716393505e-06	-444.278717	-29.82190704	3.883076429	6.600977421	-8.269779205	1.0
33	4.716393505e-06	-444.278717	-29.82190704	3.729192734	6.513502121	-8.281815529	1.0
[LeftToeBase]
31	-2.960988058e-05	-87.28669739	107.1055984	1.342095857e-07	-3.222650776e-06	-1.754975301e-06	1.0
32	-2.960988058e-05	-87.28669739	107.1055984	1.342095857e-07	-3.222650776e-06	-1.754975301e-06	1.0
33	-2.960988058e-05	-87.28669739	107.1055984	1.342095857e-07	-3.222650776e-06	-1.754975301e-06	1.0
[RightUpLeg]
31	-82.07795715	-67.51662445	-15.99559402	-11.54871273	-15.29144573	-5.86298275	1.0
32	-82.07795715	-67.51662445	-15.99559402	-11.82421494	-15.3188467	-5.873225689	1.0
33	-82.07795715	-67.51662445	-15.99559402	-12.09971714	-15.34624672	-5.883469105	1.0
[RightLeg]
31	8.435572454e-07	-443.7053833	2.861563921	19.35072708	8.277300835	1.822972178	1.0
32	8.435572454e-07	-443.7053833	2.861563921	19.8663559	8.269298553	1.891902208	1.0
33	8.435572454e-07	-443.7053833	2.861563921	20.38198471	8.261296272	1.960832238	1.0
[RightFoot]
31	9.644581951e-06	-444.2773132	-29.83789063	-7.684906006	-9.096819878	13.8837347	1.0
32	9.644581951e-06	-444.2773132	-29.83789063	-7.865526676	-8.998174667	13.87170219	1.0
33	9.644581951e-06	-444.2773132	-29.83789063	-8.046147346	-8.899529457	13.85967064	1.0
[RightToeBase]
31	-2.360438157e-05	-87.28668976	107.1056061	-2.270344567e-06	3.233250936e-06	2.690227348e-06	1.0
32	-2.360438157e-05	-87.28668976	107.1056061	-2.270344567e-06	3.233250936e-06	2.690227348e-06	1.0
33	-2.360438157e-05	-87.28668976	107.1056061	-2.270344567e-06	3.233250936e-06	2.690227348e-06	1.0
[EndOfFile]
